<svg width="499.99999999999994" height="499.99999999999994" xmlns="http://www.w3.org/2000/svg" fill="none">

 <g>
  <title>Layer 1</title>
  <path stroke="null" id="svg_1" fill="red" d="m386.58264,204.47661c0,-39.89132 0,-62.07114 -14.48783,-76.55897c-14.48783,-14.50028 -36.66765,-14.50028 -76.58386,-14.50028l-91.03435,0c-39.90376,0 -62.08358,0 -76.57141,14.48783c-14.48783,14.50028 -14.48783,36.66765 -14.48783,76.57141l0,91.05924c0,39.89132 0,62.08358 14.48783,76.57141c14.48783,14.47538 36.66765,14.47538 76.57141,14.47538l91.04679,0c39.90376,0 62.08358,0 76.57141,-14.47538c14.48783,-14.48783 14.48783,-36.6801 14.48783,-76.57141l0,-91.05924z" clip-rule="evenodd" fill-rule="evenodd"/>
 </g>
</svg>